# xmcd
#
# Track frame offsets:
#	150
#	15922
#	27886
#	44924
#	61408
#	78858
#	96716
#	114297
#	130337
#	147854
#	163929
#	176850
#	196377
#
# Disc length: 2864 seconds
#
# Revision: 1
# Processed by: cddbd v1.5.2PL0 Copyright (c) Steve Scherf et al.
# Submitted via: audiograbber 1.83.01
#
DISCID=b60b2e0d
DTITLE=Scott Dawson - Dedicated Man Scott Dawson
DYEAR=1900
DGENRE=
TTITLE0=I´ll Fly
TTITLE1=Marry Me Or Bury Me
TTITLE2=Let My Memory Burn
TTITLE3=Lady Angel
TTITLE4=Dedicated Man
TTITLE5=The Best Things In Life
TTITLE6=Getting Over You For Good
TTITLE7=The Real Deal
TTITLE8=You Keep The Sunshine
TTITLE9=A Picture Is Worth A 1000 Tears
TTITLE10=Gone
TTITLE11=To Be Back Home Again
TTITLE12=My Lover My Friend, My Vife
EXTD=
EXTT0=
EXTT1=
EXTT2=
EXTT3=
EXTT4=
EXTT5=
EXTT6=
EXTT7=
EXTT8=
EXTT9=
EXTT10=
EXTT11=
EXTT12=
PLAYORDER=
